<svg id="a" width="5e3mm" height="2e3mm" version="1.1" viewBox="0 0 5e3 2e3" xmlns="http://www.w3.org/2000/svg"><g transform="translate(0,1703)"><path d="m1.7713-1697.1-6.0476 1994.1 4999-4.2763 10.148-1994.5-733.54-7.9901 87.512 696.03c-259.06 843.99-462.37-396.44-1012.7 24.013-101.43 85.267-113.7-196.73-233.65-151.12-200.87 76.383 144.43 324.73-87.506 416.92-74.23 29.506-186.78 78.763-241.31 129.15 135.44 92.933 642.43-35.249 670.67 114.69 163.71 697.6-596.93-14.996-737.47-10.541-192.5 96.35-872.08-483.27-962.68-466.13-384.18 112.66-589.2 690.73-723.5 616.98-146.32-80.35-106.41-346.68-283.62-404.89l-118.25 37.277 115.08-992.69z" stroke="#000" stroke-width=".26458px"/></g></svg>
