<svg id="a" width="5e3mm" height="2e3mm" version="1.1" viewBox="0 0 5e3 2e3" xmlns="http://www.w3.org/2000/svg"><g transform="translate(0,1703)" stroke="#000" stroke-width=".26458px"><path d="m-4.2763-750.7v1047.7l4999-4.2763 4.2762-898.03c-619.13-127.21-1596.9-1019.1-2097.6-598.2-101.43 85.267-111.89-110.61-233.65-151.12-130.31-43.354-78.259 239.87-235.67 433.55-156.68 192.77-522.78 295.85-669.33 323.57-384.18 112.66-589.2 690.73-723.5 616.98-146.32-80.35-106.41-346.68-283.62-404.89z"/><path d="m494.39-738.65 217.71 166.31 167.82-201.08-45.357-225.27-107.9 301.01-101.83-75.202-128.94-248.49"/><path d="m459.7-1154.8c192.64 182.68 298.62 89.11 401.97-12.829"/><path d="m955.52-764.36c61.113-26.022 67.148-38.571 123.22-113.39 129.42-260.12 236.31-62.011 365.12-12.095 125.63 16.491 142.71-150.07 298.64-93.582 133.98 29.248 95.165 125.12 167.02 142.72"/></g></svg>
