<svg id="a" width="5e3mm" height="2e3mm" version="1.1" viewBox="0 0 5e3 2e3" xmlns="http://www.w3.org/2000/svg"><g transform="translate(0,1703)"><path d="m1.7713-1697.1-6.0476 1994.1 4999-4.2763 10.148-1994.5-733.54-7.9901 87.512 696.03c-259.06 843.99-462.37-396.44-1012.7 24.013-101.43 85.267-113.7-196.73-233.65-151.12-200.87 76.383 144.43 324.73-87.506 416.92-74.23 29.506-186.78 78.763-241.31 129.15 135.44 92.933 988.81 97.316 1017 247.26 269.63 638.43-180.8 417.77-699.98 109.13-395.61 23.628-531.55-202.93-989.14-491.61l-1482.8 22.615 115.08-992.69z" stroke="#2a3729" stroke-width="13.229"/></g></svg>
