<?xml version="1.0" encoding="UTF-8"?>
<svg id="a" width="5e3mm" height="2e3mm" version="1.1" viewBox="0 0 5e3 2e3" xmlns="http://www.w3.org/2000/svg" xmlns:cc="http://creativecommons.org/ns#" xmlns:dc="http://purl.org/dc/elements/1.1/" xmlns:rdf="http://www.w3.org/1999/02/22-rdf-syntax-ns#">
 <metadata>
  <rdf:RDF>
   <cc:Work rdf:about="">
    <dc:format>image/svg+xml</dc:format>
    <dc:type rdf:resource="http://purl.org/dc/dcmitype/StillImage"/>
    <dc:title/>
   </cc:Work>
  </rdf:RDF>
 </metadata>
 <path class="t" d="m4.4315 6.9981-6.0476 1994.1 4999-4.28 10.15-1994.5-921.02 4.1051c658.9 1553.4-431.42 521.72-737.72 707.94-131.67-327.12-167 195.31-321.1 265.8-74.23 29.508-186.78 78.768-241.31 129.15 135.44 92.93 988.81 97.31 1017 247.26 269.63 638.43-180.8 417.77-699.98 109.13-557.02-248.97-679.95 218.07-921.66-435.67-68.95-100.49-216.07-35.326-331.35-20.4-213.31 14.53-427.63 17.95-647.91-44.19-184.06-51.929-436.63 184.57-605.02 76.61-253.18-311.46 65.38-691.63 291.16-1035z" stroke="#0a0a0a" stroke-width="7.9375"/>
 <g stroke="#000" stroke-width=".26458px">
  <path d="m2387.1 1226.3c27.43-32.98 144.19 12.02 137.57-79.43-4.41-60.79 192.32-44.27 210.53-15.89 1.51 48.76-75.4 89.53-161.38 101.24-46.75 6.37-160.69 48.33-186.72-5.92z"/>
  <path d="m2808.8 896.34c76.09-40.863 140.29-33.588 221.59-25.797-29.68 27.674-219.34 34.245-221.59 25.797z"/>
  <path d="m2896.1 796.73c76.09-40.863 140.29-33.588 221.59-25.797-29.68 27.674-219.34 34.245-221.59 25.797z"/>
  <path d="m2949.4 701.31c76.09-40.863 140.29-33.588 221.59-25.797-29.68 27.674-219.34 34.245-221.59 25.797z"/>
  <path d="m2371.3 1034.3-1.98-117.09c-98.64 4.97-211.38-105.65-267.89-146.18 14.51 88.627 183.35 262.46 269.87 263.27z"/>
  <path d="m2443.4 1029.6h31.09v46.96h-33.74z"/>
 </g>
</svg>
