<svg id="a" width="5e3mm" height="2e3mm" version="1.1" viewBox="0 0 5e3 2e3" xmlns="http://www.w3.org/2000/svg"><g transform="translate(0,1703)"><path d="m1.7713-1697.1-6.0476 1994.1 4999-4.2763 10.148-1994.5-921.02 4.1051c658.9 1553.4-431.42 521.72-737.72 707.94-101.43 85.267-113.7-196.73-233.65-151.12-200.87 76.383 144.43 324.73-87.506 416.92-74.23 29.506-186.78 78.763-241.31 129.15 135.44 92.933 988.81 97.316 1017 247.26 269.63 638.43-180.8 417.77-699.98 109.13-557.02-248.97-679.95 218.07-921.66-435.67-7.2092-20.035-41.771-58.969-75.033-55.945l-924.06 15.168c-172.48 82.63-416.79 160.76-585.18 52.804-253.13-311.46 65.43-691.63 291.21-1035z" stroke="#2a3729" stroke-width="13.229"/><g stroke="#000"><path d="m1419.4-816.79h-98.768v57.533h101.08z" stroke-width=".47602px"/><path d="m1268.7-924.45h-98.801v141.08h101.12z" stroke-width=".74554px"/><path d="m1522.1-943.63c-69.818 55.154-113.44 49.712-203.07 49.712l1.8709 40.295 164.76-13.898z" stroke-width=".37817px"/><path d="m1610.8-889.68-59.334 72.697 82.052 42.763 50.781-51.316-7.7508-60.403z" stroke-width=".26458px"/></g></g></svg>
