<svg id="a" width="5e3mm" height="2e3mm" version="1.1" viewBox="0 0 5e3 2e3" xmlns="http://www.w3.org/2000/svg"><g transform="translate(0,1703)"><path d="m1.7713-1697.1-6.0476 1994.1 4999-4.2763 10.148-1994.5-921.02 4.1051c658.9 1553.4-431.42 521.72-737.72 707.94-101.43 85.267-113.7-196.73-233.65-151.12-200.87 76.383 144.43 324.73-87.506 416.92-74.23 29.506-186.78 78.763-241.31 129.15 135.44 92.933 988.81 97.316 1017 247.26 269.63 638.43-180.8 417.77-699.98 109.13-557.02-248.97-679.95 218.07-921.66-435.67-7.2092-20.035-41.771-58.969-75.033-55.945l-1190.9 18.831c-98.5 6.7335-227.06 81.961-332.73 9.831-253.13-311.46 79.793-652.32 305.58-995.72z" stroke="#2a3729" stroke-width="13.229"/></g></svg>
