<svg id="m" width="80" height="110" version="1.1" viewBox="0 0 21.167 29.104" xmlns="http://www.w3.org/2000/svg">
 <path d="m3.4078 4.4102c0.92714 0.42017 1.429 1.1374 1.121 1.8171-0.30804 0.6797-0.93874 0.80288-1.8659 0.3827s-1.6252-1.2682-1.3172-1.9479c0.30804-0.6797 1.135-0.67207 2.0621-0.25189zm2.9345 3.0277 0.63411 1.3969-0.21581 5.5714-0.38537 1.2856-0.32224-1.2965-0.15759-5.5142-0.0999 4.0654-0.59437 9.0051-0.13274 2.3036-0.70881-2.3036-0.82346-7.7645-0.26532 7.8347-0.35442 2.1709-0.53174-2.2151-0.84176-8.0122 0.13289-5.2718-0.66419 5.4049-0.48727 1.4618-0.2497-1.5428 0.42234-5.6654 0.88921-1.3351 2.6147-1.0339zm-2.452-7.4718 0.31015 1.7e-5 2e-5 5.1573-0.31006-0.23979z" fill="#1a1a1a"/>
</svg>
