<svg width="40" height="40" version="1.1" viewBox="0 0 10.583 10.583" xmlns="http://www.w3.org/2000/svg"><g transform="translate(0 -286.42)"><g fill="#e6e6e6"><path d="m6.0197 292.77 1.1937-0.5017 0.76257 2.6839c-0.057854 0.21816 0.021455 0.62139-0.50027 0.21014z"/><path d="m5.5888 293.1 1.2187 0.033-0.32097 3.246c0.86716-0.51472 1.1916 0.0951 1.4121 0.51151l-2.2467-0.0144z"/><path d="m4.383 292.99 1.2187 0.0329-0.33387 3.3233c0.86716-0.51472 1.1916 0.0951 1.4121 0.51149l-2.2467-0.0144z"/></g><path d="m4.4527 291.64c-0.091794 0.70183 0.023811 2.1367-0.36955 2.7655l3.0098 0.0548c-0.39452-0.4866-0.52891-1.8299-0.36328-2.7746z" fill="#ccc"/><path d="m3.8648 292.26 1.2234 0.4243-1.2259 2.5064c-0.1888 0.12365-0.39921 0.47664-0.51261-0.17794z" fill="#e6e6e6"/><path d="m0.93822 287.49 1.5274 0.48087c1.7351-1.2464 3.446-2.322 4.8086-0.14144 0.88977 1.2619 0.84178 2.8859 0.53743 4.0732l-1.782 1.2163c-4.8967-0.96213-4.0686-3.5599-5.0915-5.6289z" fill="#e6e6e6"/><ellipse cx="5.7489" cy="290.03" rx=".31002" ry=".52503" opacity=".476"/><ellipse cx="6.489" cy="290.04" rx=".31002" ry=".52503" opacity=".476"/></g></svg>
